<svg width="771" height="769" viewBox="0 0 771 769" fill="none" xmlns="http://www.w3.org/2000/svg">
<path d="M320.564 675.249L326.188 676.344L329.56 659.029L333.653 659.826L330.281 677.141L335.876 678.231L335.165 681.882L319.853 678.9L320.564 675.249Z" fill="white"/>
<path d="M289.808 647.967L292.285 648.79L292.772 651.132L297.439 650.311C299.64 651.042 300.856 652.331 301.086 654.177C301.207 655.081 301.196 656.005 301.051 656.947C300.882 657.903 300.636 658.864 300.315 659.832C299.987 660.819 299.738 661.537 299.568 661.987C299.391 662.455 299.164 662.98 298.887 663.562C298.603 664.163 298.325 664.651 298.054 665.024C297.763 665.391 297.413 665.749 297.002 666.097C296.585 666.465 296.142 666.718 295.675 666.858C294.625 667.163 293.417 667.088 292.05 666.635L288.15 665.339L284.373 664.338L289.808 647.967ZM291.789 654.378L289.256 662.008L292.074 662.944C293.118 663.291 293.982 663.135 294.664 662.476C295.327 661.811 295.923 660.682 296.453 659.087C296.976 657.512 297.155 656.338 296.989 655.567C296.805 654.789 296.172 654.221 295.09 653.862L291.789 654.378Z" fill="white"/>
<path d="M252.945 650.567L249.327 649.091L256.473 634.252C257.297 632.541 258.413 631.469 259.82 631.036C261.217 630.577 262.862 630.803 264.754 631.714C266.214 632.417 267.354 633.322 268.176 634.428C268.614 634.994 268.865 635.647 268.929 636.389C268.994 637.13 268.836 637.897 268.454 638.69L265.105 637.278C265.348 636.773 265.341 636.326 265.085 635.936C264.829 635.546 264.268 635.143 263.403 634.727C262.52 634.301 261.822 634.231 261.307 634.516C260.774 634.792 260.313 635.336 259.922 636.147L258.668 638.406L263.428 638.201C265.5 639.199 266.558 640.575 266.602 642.327C266.652 643.883 266.243 645.562 265.376 647.364C264.343 649.508 263.452 650.944 262.702 651.67C261.891 652.478 261.066 652.947 260.227 653.076C259.156 653.226 257.963 652.984 256.648 652.351L252.945 650.567ZM257.305 641.513L254.468 647.405L257.143 648.694C258.152 649.18 259.011 649.171 259.719 648.669C260.427 648.166 261.077 647.302 261.667 646.077C262.257 644.852 262.488 643.887 262.362 643.182C262.208 642.486 261.636 641.9 260.645 641.423L257.305 641.513Z" fill="white"/>
<path d="M196.556 591.667L199.731 594.37L194.131 600.949L200.093 606.025L205.693 599.446L208.869 602.149L195.022 618.414L191.847 615.71L197.701 608.835L191.739 603.759L185.885 610.635L182.71 607.932L196.556 591.667Z" fill="white"/>
<path d="M167.971 573.14L174.687 580.536C175.842 579.487 176.524 578.543 176.735 577.703C176.932 576.849 176.533 575.874 175.538 574.779C174.892 574.068 174.193 573.744 173.439 573.807C172.671 573.883 172.08 574.11 171.665 574.486L169.305 571.888C170.889 570.449 172.442 569.823 173.962 570.009C175.469 570.181 176.861 570.97 178.138 572.376C179.402 573.768 180.184 575.03 180.483 576.163C181.107 578.487 179.665 581.242 176.156 584.429C174.069 586.325 172.134 587.258 170.351 587.229C168.554 587.213 166.815 586.28 165.134 584.43C162.216 581.217 162.541 577.99 166.109 574.75C166.494 574.4 167.115 573.864 167.971 573.14ZM172.65 582.264L168.334 577.511C167.357 578.399 166.814 579.229 166.706 580.003C166.598 580.776 166.894 581.548 167.593 582.318C168.279 583.073 169.059 583.472 169.935 583.514C170.783 583.555 171.688 583.138 172.65 582.264Z" fill="white"/>
<path d="M152.234 539.805L153.899 542.192L152.741 544.097L157.308 546.764C158.074 547.863 158.342 549.103 158.11 550.484C157.851 551.859 156.942 553.091 155.383 554.178L145.96 560.752L143.728 557.553L152.463 551.46C154.022 550.373 154.366 549.206 153.496 547.959L149.938 546.162L140.416 552.804L138.185 549.605L152.234 539.805Z" fill="white"/>
<path d="M127.408 511.944L132.028 520.802C133.411 520.08 134.311 519.34 134.727 518.581C135.135 517.805 134.996 516.761 134.311 515.449C133.867 514.597 133.273 514.107 132.528 513.976C131.766 513.855 131.136 513.924 130.64 514.183L129.016 511.071C130.913 510.082 132.574 509.87 133.997 510.435C135.411 510.984 136.557 512.1 137.436 513.785C138.305 515.451 138.741 516.871 138.744 518.043C138.758 520.449 136.664 522.748 132.462 524.94C129.962 526.245 127.853 526.657 126.136 526.176C124.402 525.705 122.956 524.361 121.8 522.145C119.792 518.297 120.925 515.258 125.199 513.029C125.66 512.789 126.396 512.427 127.408 511.944ZM129.619 521.957L126.65 516.265C125.48 516.875 124.744 517.541 124.443 518.262C124.143 518.983 124.233 519.804 124.714 520.726C125.186 521.63 125.84 522.214 126.676 522.477C127.486 522.731 128.467 522.558 129.619 521.957Z" fill="white"/>
<path d="M104.955 482.51L108.932 482.197C108.923 482.52 108.984 482.86 109.115 483.217C109.461 484.155 110.289 485.161 111.6 486.234L122.975 482.049L124.321 485.709L108.246 491.625L107.241 488.894L108.337 487.531L105.303 484.236C105.215 484.056 105.112 483.806 104.995 483.487C104.877 483.167 104.864 482.842 104.955 482.51Z" fill="white"/>
<path d="M92.4805 406.051L94.894 407.325L93.2188 410.893L93.3757 411.269L96.9653 412.551L96.138 415.223L92.2634 413.487L92.0723 417.755L89.3542 417.384L89.7608 413.788L86.3524 415.323L85.3167 412.71L88.8734 411.463L86.1202 409.166L87.8412 407.011L90.9053 410.031L92.4805 406.051Z" fill="white"/>
<path d="M93.0773 330.135L92.1628 335.791L109.577 338.607L108.911 342.723L91.4973 339.908L90.5876 345.535L86.9152 344.941L89.405 329.541L93.0773 330.135Z" fill="white"/>
<path d="M119.359 298.52L118.617 301.022L116.291 301.584L117.261 306.222C116.601 308.446 115.352 309.702 113.514 309.991C112.614 310.141 111.691 310.16 110.744 310.045C109.784 309.907 108.815 309.692 107.837 309.402C106.84 309.106 106.114 308.88 105.66 308.724C105.186 308.563 104.654 308.353 104.063 308.094C103.453 307.829 102.957 307.567 102.575 307.308C102.199 307.029 101.83 306.691 101.469 306.291C101.088 305.886 100.821 305.452 100.666 304.989C100.328 303.95 100.364 302.74 100.773 301.359L101.943 297.419L102.822 293.612L119.359 298.52ZM113.015 300.706L105.308 298.418L104.463 301.265C104.15 302.32 104.333 303.178 105.013 303.838C105.699 304.48 106.847 305.04 108.458 305.518C110.049 305.99 111.228 306.131 111.993 305.941C112.765 305.732 113.313 305.081 113.637 303.988L113.015 300.706Z" fill="white"/>
<path d="M115.579 261.758L116.938 258.095L131.999 264.762C133.736 265.531 134.843 266.612 135.321 268.004C135.824 269.386 135.651 271.037 134.801 272.958C134.145 274.439 133.278 275.608 132.199 276.465C131.647 276.92 131.002 277.192 130.263 277.281C129.524 277.369 128.752 277.235 127.947 276.879L129.252 273.487C129.764 273.713 130.211 273.693 130.592 273.424C130.973 273.155 131.358 272.582 131.747 271.704C132.144 270.808 132.191 270.107 131.89 269.602C131.597 269.079 131.039 268.635 130.216 268.271L127.917 267.089L128.275 271.84C127.344 273.943 126.003 275.045 124.253 275.145C122.699 275.245 121.008 274.89 119.18 274.08C117.003 273.117 115.54 272.272 114.789 271.547C113.956 270.762 113.461 269.952 113.305 269.118C113.121 268.052 113.324 266.852 113.915 265.517L115.579 261.758ZM124.769 265.827L118.789 263.179L117.586 265.895C117.133 266.919 117.169 267.777 117.694 268.469C118.219 269.161 119.103 269.782 120.347 270.332C121.59 270.883 122.562 271.083 123.263 270.934C123.953 270.758 124.521 270.168 124.966 269.162L124.769 265.827Z" fill="white"/>
<path d="M172.642 203.511L170.042 206.772L163.287 201.385L158.405 207.506L165.16 212.893L162.56 216.154L145.86 202.836L148.46 199.576L155.52 205.206L160.402 199.084L153.342 193.454L155.942 190.194L172.642 203.511Z" fill="white"/>
<path d="M190.242 174.347L183.066 181.297C184.151 182.417 185.117 183.069 185.963 183.252C186.823 183.422 187.784 182.992 188.847 181.962C189.537 181.294 189.838 180.585 189.751 179.834C189.651 179.068 189.405 178.485 189.016 178.082L191.537 175.64C193.026 177.178 193.701 178.709 193.564 180.234C193.441 181.746 192.697 183.162 191.332 184.484C189.981 185.792 188.745 186.614 187.622 186.949C185.319 187.648 182.519 186.295 179.222 182.89C177.26 180.864 176.265 178.96 176.237 177.177C176.195 175.38 177.072 173.612 178.868 171.873C181.986 168.854 185.221 169.075 188.574 172.538C188.936 172.911 189.492 173.514 190.242 174.347ZM181.273 179.316L185.885 174.85C184.967 173.901 184.119 173.386 183.343 173.303C182.566 173.219 181.804 173.54 181.057 174.263C180.325 174.973 179.951 175.766 179.937 176.643C179.924 177.491 180.369 178.382 181.273 179.316Z" fill="white"/>
<path d="M223.056 157.55L220.724 159.291L218.783 158.194L216.264 162.844C215.19 163.646 213.959 163.953 212.572 163.765C211.188 163.55 209.928 162.681 208.792 161.158L201.92 151.95L205.045 149.618L211.415 158.153C212.551 159.675 213.729 159.982 214.947 159.073L216.629 155.459L209.685 146.155L212.811 143.822L223.056 157.55Z" fill="white"/>
<path d="M250.107 131.843L241.402 136.746C242.168 138.105 242.936 138.981 243.708 139.372C244.497 139.754 245.536 139.582 246.826 138.856C247.662 138.385 248.133 137.775 248.24 137.027C248.336 136.261 248.247 135.634 247.972 135.146L251.031 133.423C252.081 135.288 252.346 136.94 251.826 138.381C251.323 139.812 250.244 140.993 248.589 141.926C246.951 142.848 245.546 143.329 244.375 143.369C241.971 143.461 239.605 141.442 237.279 137.312C235.896 134.855 235.416 132.76 235.841 131.029C236.257 129.28 237.553 127.792 239.732 126.566C243.513 124.436 246.587 125.471 248.952 129.671C249.207 130.124 249.592 130.848 250.107 131.843ZM240.17 134.375L245.764 131.225C245.117 130.075 244.428 129.361 243.698 129.083C242.967 128.806 242.149 128.922 241.243 129.433C240.354 129.933 239.792 130.606 239.556 131.45C239.328 132.267 239.532 133.242 240.17 134.375Z" fill="white"/>
<path d="M278.807 108.459L279.247 112.424C278.924 112.425 278.586 112.497 278.234 112.64C277.307 113.015 276.328 113.875 275.297 115.22L279.846 126.455L276.231 127.918L269.802 112.04L272.5 110.948L273.897 112.001L277.093 108.862C277.27 108.768 277.517 108.658 277.832 108.53C278.147 108.403 278.472 108.379 278.807 108.459Z" fill="white"/>
<path d="M354.826 93.5398L353.63 95.9929L350.011 94.4329L349.64 94.6018L348.474 98.2306L345.777 97.4894L347.388 93.5612L343.116 93.507L343.399 90.7784L347.006 91.0695L345.363 87.712L347.942 86.5932L349.302 90.108L351.509 87.2826L353.718 88.9337L350.798 92.093L354.826 93.5398Z" fill="white"/>
<path d="M430.723 91.7034L425.04 90.9706L422.784 108.466L418.649 107.933L420.904 90.4374L415.251 89.7085L415.727 86.019L431.199 88.0139L430.723 91.7034Z" fill="white"/>
<path d="M463.163 116.959L460.639 116.297L460.003 113.99L455.399 115.109C453.155 114.52 451.859 113.312 451.511 111.484C451.332 110.589 451.284 109.667 451.368 108.717C451.476 107.753 451.66 106.778 451.918 105.791C452.182 104.785 452.385 104.053 452.526 103.593C452.672 103.115 452.865 102.576 453.104 101.977C453.349 101.359 453.595 100.855 453.842 100.465C454.109 100.08 454.436 99.7004 454.823 99.3265C455.216 98.9332 455.641 98.6519 456.099 98.4825C457.127 98.1111 458.337 98.108 459.73 98.4733L463.706 99.5158L467.539 100.273L463.163 116.959ZM460.776 110.688L462.815 102.911L459.942 102.158C458.878 101.879 458.027 102.09 457.388 102.79C456.769 103.496 456.246 104.662 455.82 106.287C455.399 107.893 455.296 109.075 455.51 109.834C455.744 110.599 456.412 111.125 457.515 111.415L460.776 110.688Z" fill="white"/>
<path d="M499.785 112.002L503.49 113.243L497.309 128.509C496.596 130.271 495.552 131.412 494.175 131.934C492.81 132.481 491.154 132.361 489.208 131.573C487.706 130.965 486.51 130.136 485.619 129.084C485.146 128.548 484.853 127.911 484.741 127.176C484.629 126.44 484.738 125.664 485.069 124.848L488.501 126.044C488.291 126.563 488.326 127.009 488.607 127.381C488.887 127.754 489.473 128.12 490.362 128.48C491.271 128.848 491.973 128.873 492.468 128.556C492.982 128.246 493.408 127.674 493.745 126.84L494.853 124.505L490.115 125.014C487.983 124.151 486.839 122.846 486.683 121.1C486.534 119.551 486.834 117.849 487.585 115.995C488.478 113.789 489.275 112.3 489.976 111.526C490.734 110.668 491.527 110.148 492.356 109.965C493.416 109.747 494.622 109.912 495.975 110.46L499.785 112.002ZM496.013 121.317L498.468 115.255L495.715 114.141C494.677 113.721 493.82 113.784 493.146 114.331C492.471 114.878 491.879 115.781 491.368 117.042C490.858 118.303 490.689 119.28 490.86 119.976C491.058 120.66 491.667 121.208 492.686 121.621L496.013 121.317Z" fill="white"/>
<path d="M559.831 167.168L556.489 164.674L561.657 157.75L555.382 153.067L550.214 159.991L546.873 157.497L559.648 140.379L562.99 142.873L557.589 150.109L563.864 154.793L569.265 147.556L572.607 150.05L559.831 167.168Z" fill="white"/>
<path d="M589.545 183.825L582.369 176.876C581.283 177.996 580.663 178.982 580.506 179.833C580.365 180.698 580.825 181.646 581.889 182.675C582.578 183.343 583.297 183.622 584.045 183.511C584.807 183.385 585.382 183.121 585.772 182.719L588.293 185.161C586.805 186.698 585.296 187.423 583.767 187.334C582.252 187.259 580.812 186.561 579.447 185.239C578.097 183.931 577.236 182.722 576.865 181.61C576.093 179.331 577.355 176.489 580.653 173.084C582.615 171.059 584.486 170.003 586.267 169.918C588.061 169.818 589.857 170.638 591.653 172.378C594.77 175.397 594.652 178.638 591.299 182.1C590.938 182.474 590.353 183.049 589.545 183.825ZM584.291 175.02L588.902 179.487C589.821 178.538 590.309 177.675 590.367 176.896C590.425 176.117 590.081 175.366 589.334 174.642C588.601 173.933 587.797 173.585 586.92 173.599C586.071 173.613 585.195 174.086 584.291 175.02Z" fill="white"/>
<path d="M607.385 216.084L605.571 213.808L606.604 211.833L601.876 209.464C601.041 208.417 600.694 207.196 600.837 205.804C601.008 204.414 601.836 203.127 603.321 201.942L612.305 194.778L614.736 197.827L606.41 204.467C604.924 205.652 604.655 206.839 605.603 208.027L609.269 209.593L618.346 202.354L620.778 205.403L607.385 216.084Z" fill="white"/>
<path d="M633.946 242.296L628.767 233.754C627.433 234.562 626.582 235.358 626.215 236.142C625.859 236.943 626.064 237.976 626.832 239.242C627.329 240.063 627.954 240.514 628.705 240.597C629.474 240.669 630.098 240.56 630.577 240.269L632.396 243.271C630.566 244.38 628.923 244.698 627.466 244.224C626.02 243.768 624.805 242.727 623.82 241.103C622.845 239.495 622.319 238.106 622.242 236.937C622.073 234.537 624.016 232.108 628.069 229.651C630.481 228.189 632.558 227.643 634.302 228.012C636.064 228.371 637.592 229.62 638.888 231.758C641.138 235.469 640.202 238.574 636.08 241.073C635.636 241.342 634.924 241.75 633.946 242.296ZM631.097 232.446L634.425 237.936C635.554 237.252 636.245 236.541 636.499 235.802C636.753 235.064 636.61 234.25 636.071 233.36C635.542 232.488 634.852 231.947 634 231.739C633.176 231.537 632.208 231.773 631.097 232.446Z" fill="white"/>
<path d="M658.238 270.232L654.289 270.799C654.277 270.476 654.195 270.141 654.041 269.793C653.636 268.879 652.745 267.928 651.368 266.941L640.285 271.847L638.706 268.281L654.37 261.347L655.548 264.008L654.541 265.438L657.78 268.532C657.879 268.707 657.998 268.949 658.136 269.26C658.273 269.571 658.307 269.895 658.238 270.232Z" fill="white"/>
<path d="M675.585 345.735L673.095 344.618L674.538 340.95L674.358 340.585L670.693 339.536L671.348 336.817L675.326 338.301L675.243 334.029L677.979 334.225L677.804 337.839L681.107 336.09L682.308 338.631L678.838 340.103L681.733 342.218L680.154 344.479L676.902 341.662L675.585 345.735Z" fill="white"/>
<path d="M679.854 421.534L680.404 415.83L662.846 414.136L663.246 409.986L680.804 411.68L681.352 406.006L685.055 406.363L683.557 421.891L679.854 421.534Z" fill="white"/>
<path d="M655.651 454.767L656.232 452.223L658.517 451.513L657.252 446.947C657.768 444.685 658.934 443.351 660.75 442.945C661.638 442.738 662.558 442.661 663.511 442.714C664.478 442.791 665.458 442.943 666.453 443.17C667.467 443.401 668.205 443.58 668.669 443.706C669.152 443.837 669.697 444.013 670.303 444.233C670.928 444.458 671.44 444.688 671.838 444.922C672.231 445.176 672.621 445.491 673.007 445.866C673.413 446.246 673.708 446.662 673.892 447.114C674.296 448.129 674.338 449.339 674.017 450.743L673.103 454.75L672.469 458.606L655.651 454.767ZM661.842 452.18L669.681 453.969L670.342 451.073C670.586 450.001 670.348 449.157 669.627 448.541C668.902 447.945 667.72 447.459 666.082 447.086C664.464 446.716 663.279 446.651 662.527 446.889C661.77 447.148 661.265 447.832 661.012 448.944L661.842 452.18Z" fill="white"/>
<path d="M661.779 491.211L660.657 494.954L645.201 489.265C643.418 488.609 642.244 487.602 641.678 486.243C641.087 484.896 641.154 483.237 641.879 481.266C642.439 479.746 643.229 478.524 644.251 477.6C644.773 477.11 645.399 476.797 646.131 476.661C646.863 476.526 647.642 476.61 648.468 476.914L647.383 480.382C646.857 480.189 646.413 480.239 646.05 480.531C645.686 480.824 645.339 481.42 645.007 482.321C644.669 483.241 644.666 483.943 644.999 484.428C645.325 484.932 645.911 485.339 646.755 485.65L649.125 486.682L648.464 481.963C649.258 479.804 650.525 478.619 652.266 478.407C653.809 478.208 655.52 478.454 657.397 479.145C659.63 479.967 661.145 480.716 661.94 481.392C662.822 482.122 663.368 482.898 663.577 483.721C663.829 484.772 663.703 485.983 663.199 487.354L661.779 491.211ZM652.348 487.74L658.485 489.998L659.511 487.211C659.898 486.16 659.807 485.306 659.239 484.65C658.671 483.993 657.748 483.43 656.472 482.96C655.196 482.49 654.213 482.352 653.524 482.546C652.846 482.766 652.317 483.392 651.937 484.424L652.348 487.74Z" fill="white"/>
<path d="M608.566 552.994L610.952 549.574L618.038 554.517L622.518 548.095L615.431 543.152L617.817 539.732L635.336 551.952L632.95 555.372L625.544 550.206L621.064 556.628L628.471 561.794L626.085 565.214L608.566 552.994Z" fill="white"/>
<path d="M592.87 583.226L599.586 575.831C598.431 574.782 597.426 574.194 596.57 574.065C595.701 573.951 594.769 574.442 593.774 575.537C593.129 576.248 592.873 576.975 593.008 577.719C593.158 578.477 593.44 579.044 593.855 579.42L591.495 582.018C589.911 580.58 589.138 579.095 589.178 577.564C589.204 576.048 589.856 574.586 591.133 573.18C592.397 571.788 593.579 570.889 594.677 570.482C596.931 569.637 599.811 570.808 603.32 573.995C605.408 575.891 606.523 577.727 606.665 579.504C606.822 581.295 606.06 583.116 604.379 584.966C601.462 588.179 598.219 588.165 594.65 584.925C594.266 584.575 593.672 584.009 592.87 583.226ZM601.502 577.693L597.186 582.445C598.163 583.333 599.042 583.793 599.822 583.826C600.602 583.86 601.342 583.491 602.041 582.721C602.727 581.966 603.049 581.151 603.007 580.275C602.966 579.428 602.464 578.567 601.502 577.693Z" fill="white"/>
<path d="M561.199 602.091L563.415 600.205L565.423 601.175L567.639 596.373C568.659 595.504 569.868 595.119 571.264 595.217C572.659 595.343 573.972 596.13 575.203 597.577L582.652 606.326L579.682 608.854L572.778 600.744C571.547 599.297 570.352 599.067 569.195 600.052L567.747 603.766L575.273 612.607L572.304 615.135L561.199 602.091Z" fill="white"/>
<path d="M535.852 629.479L544.224 624.029C543.373 622.721 542.55 621.897 541.755 621.555C540.943 621.224 539.917 621.463 538.677 622.27C537.872 622.794 537.441 623.433 537.383 624.187C537.335 624.957 537.464 625.577 537.77 626.046L534.828 627.961C533.661 626.168 533.29 624.535 533.717 623.065C534.127 621.605 535.128 620.356 536.72 619.32C538.296 618.294 539.667 617.724 540.833 617.609C543.227 617.364 545.716 619.227 548.302 623.2C549.841 625.563 550.453 627.622 550.14 629.377C549.838 631.149 548.639 632.717 546.544 634.081C542.906 636.449 539.773 635.613 537.143 631.573C536.86 631.137 536.429 630.439 535.852 629.479ZM545.605 626.315L540.225 629.818C540.945 630.924 541.678 631.592 542.425 631.822C543.171 632.052 543.98 631.884 544.852 631.316C545.706 630.76 546.224 630.053 546.406 629.195C546.581 628.365 546.315 627.405 545.605 626.315Z" fill="white"/>
<path d="M508.709 654.654L508.016 650.725C508.338 650.703 508.671 650.61 509.013 650.445C509.914 650.011 510.835 649.09 511.778 647.682L506.519 636.762L510.033 635.07L517.465 650.503L514.843 651.766L513.382 650.805L510.394 654.142C510.222 654.247 509.983 654.373 509.677 654.52C509.371 654.668 509.048 654.712 508.709 654.654Z" fill="white"/>
<path d="M433.801 674.412L434.838 671.888L438.55 673.212L438.909 673.02L439.84 669.324L442.579 669.891L441.223 673.914L445.49 673.695L445.382 676.436L441.764 676.376L443.618 679.622L441.117 680.903L439.534 677.483L437.513 680.444L435.202 678.938L437.914 675.598L433.801 674.412Z" fill="white"/>
</svg>
