<svg width="637" height="350" viewBox="0 0 637 350" fill="none" xmlns="http://www.w3.org/2000/svg">
<path fill-rule="evenodd" clip-rule="evenodd" d="M0.117188 0.486328H24.6533V78.4893H110.347V0.486328H134.883V177H110.347V96.5557H24.6533V177H0.117188V0.486328ZM150.451 0.486328H261.5V18.7969H174.987V76.9023H261.5V95.2129H174.987V158.689H262.146V170.486H262.2V291.824C262.2 302.648 264.316 310.786 268.548 316.238C272.861 321.691 278.517 325.353 285.516 327.225C292.514 329.015 300.083 329.91 308.221 329.91C316.521 329.91 323.927 329.015 330.438 327.225C337.029 325.353 342.238 321.691 346.062 316.238C349.887 310.786 351.8 302.648 351.8 291.824V170.486H376.458V289.261C376.458 297.399 375.441 305.13 373.406 312.454C371.453 319.697 367.994 326.126 363.03 331.741C358.066 337.356 351.149 341.751 342.278 344.925C333.408 348.099 322.055 349.686 308.221 349.686C293.816 349.686 281.976 348.099 272.698 344.925C263.502 341.751 256.341 337.397 251.214 331.863C246.087 326.329 242.506 319.941 240.472 312.698C238.519 305.374 237.542 297.562 237.542 289.261V177H150.451V0.486328ZM385.951 170.486H495.756H496.181H574.491C584.42 170.486 593.046 172.114 600.37 175.369C607.776 178.543 613.513 183.955 617.582 191.604C621.732 199.173 623.808 209.549 623.808 222.732C623.808 236.974 621.488 247.553 616.85 254.471C612.292 261.307 606.311 266.271 598.905 269.363L636.381 348.5H611.112L576.078 273.758H520.414V348.5H497.646H495.756H385.951V170.486ZM495.756 328.689V188.797H410.487V246.902H486.171V265.213H410.487V328.689H495.756ZM572.416 255.203H520.414V189.163H575.224C582.629 189.163 588 190.994 591.337 194.656C594.674 198.237 596.789 202.754 597.685 208.206C598.661 213.659 599.149 219.233 599.149 224.93C599.149 230.545 598.376 235.672 596.83 240.311C595.365 244.868 592.72 248.489 588.896 251.175C585.071 253.86 579.577 255.203 572.416 255.203Z" fill="white"/>
</svg>
