<svg width="93" height="80" viewBox="0 0 93 80" fill="none" xmlns="http://www.w3.org/2000/svg">
<path d="M0 0V53.3333L46.469 79.9383L92.938 53.3333V0.0617284L0 0ZM89.0294 51.4198L46.469 75.7407L3.84656 51.4198V34.321H89.0294V51.4198ZM89.0294 31.2346H3.84656V3.51852H89.0294V31.2346Z" fill="#363636"/>
<path d="M53.4176 67.5309V37.5309C53.4176 37.4691 53.3556 37.3457 53.2315 37.3457H50.1294C50.0674 37.3457 49.9433 37.4074 49.9433 37.5309V65.679L46.4069 67.5926L42.8085 65.679V37.5926C42.8085 37.5309 42.7465 37.4074 42.6224 37.4074H39.5203C39.4583 37.4074 39.4583 37.4074 39.3963 37.4691C39.3963 37.4691 39.3342 37.5309 39.3342 37.5926V67.5926C39.3342 67.6543 39.3342 67.716 39.3963 67.716L46.2208 71.6049C46.2829 71.6049 46.3449 71.6049 46.4069 71.6049L53.1694 67.716C53.3556 67.6543 53.4176 67.5926 53.4176 67.5309Z" fill="#363636"/>
<path d="M34.495 64.8148C34.5571 64.8148 34.6191 64.8148 34.6191 64.8148C34.6811 64.8148 34.6811 64.7531 34.6811 64.6914V61.4197C34.6811 61.358 34.6811 61.2963 34.6191 61.2963L28.1048 57.7778V49.8765L33.9366 51.358C33.9987 51.358 34.0607 51.2963 34.0607 51.1728V47.963C34.0607 47.9012 33.9987 47.8395 33.9366 47.8395L28.1048 46.5432V40.3704H34.5571C34.6191 40.3704 34.6811 40.3086 34.6811 40.1852V37.5309C34.6811 37.4691 34.6191 37.3457 34.5571 37.3457H25.0027C24.9406 37.3457 24.8786 37.4074 24.8786 37.5309V59.1358C24.8786 59.1975 24.8786 59.2593 24.9406 59.2593L34.495 64.8148Z" fill="#363636"/>
<path d="M68.6798 58.8272V55.9259C68.6798 55.8642 68.6798 55.8025 68.6177 55.8025C68.5557 55.8025 68.4936 55.8025 68.4316 55.8025L62.0413 59.2593V50.6173L67.9973 49.0741C68.0593 49.0741 68.1214 49.0123 68.1214 48.9506V46.1111C68.1214 46.0494 68.1214 45.9876 68.0593 45.9876C68.0593 45.9876 67.9973 45.9259 67.9353 45.9259L62.0413 47.2222V40.3704H68.4936C68.5557 40.3704 68.6798 40.3086 68.6798 40.1852V37.5309C68.6798 37.4691 68.6177 37.3457 68.4936 37.3457H59.0013C58.9393 37.3457 58.8152 37.4074 58.8152 37.5309V64.2592C58.8152 64.321 58.8152 64.3827 58.8772 64.3827C58.9393 64.3827 59.0013 64.3827 59.0633 64.3827L68.6177 58.8889C68.6798 58.9506 68.6798 58.8889 68.6798 58.8272Z" fill="#363636"/>
<path d="M16.8132 54.6914L19.481 56.2346C19.543 56.2346 19.6051 56.2346 19.6671 56.2346C19.7291 56.2346 19.7291 56.1728 19.7291 56.1111V37.5926C19.7291 37.5309 19.6671 37.4074 19.543 37.4074H16.8752C16.8132 37.4074 16.6891 37.4691 16.6891 37.5926V44.0741L10.2988 42.6543V37.5309C10.2988 37.4691 10.2368 37.3457 10.1127 37.3457H7.50699C7.44494 37.3457 7.44494 37.3457 7.3829 37.4074C7.3829 37.4074 7.32086 37.4691 7.32086 37.5309V49.1975C7.32086 49.2593 7.32086 49.321 7.3829 49.321L9.98864 50.8025C10.0507 50.8025 10.1127 50.8025 10.1748 50.8025C10.2368 50.8025 10.2368 50.7407 10.2368 50.679V45.3086L16.7511 46.9753V54.5679C16.7511 54.6296 16.7511 54.6296 16.8132 54.6914Z" fill="#363636"/>
<path d="M73.7051 55.9259C73.7672 55.9259 73.8292 55.9259 73.8912 55.9259L76.6211 54.3827C76.6211 54.3827 76.6211 54.3827 76.6211 54.321V46.9136L78.2341 46.4815L82.9493 50.679C83.0113 50.7407 83.0734 50.7407 83.1354 50.7407L85.555 49.3827C85.617 49.3827 85.6171 49.321 85.6171 49.2593C85.6171 49.1975 85.6171 49.1975 85.6171 49.1358L81.5223 45.679L84.4383 44.9383C85.4309 44.6914 85.555 44.2593 85.555 43.2716V38.5185C85.4309 37.8395 84.9346 37.4074 84.1901 37.4074C84.1281 37.4074 84.1281 37.4074 84.066 37.4074H73.8292C73.7672 37.4074 73.6431 37.5309 73.6431 37.5926V55.8025C73.6431 55.8642 73.6431 55.9259 73.7051 55.9259ZM76.6211 40.3704H82.1427C82.3909 40.3704 82.577 40.5556 82.577 40.8025V42.2222C82.577 42.5309 82.515 42.7161 82.0807 42.8395L76.559 44.0123V40.3704H76.6211Z" fill="#363636"/>
<path fill-rule="evenodd" clip-rule="evenodd" d="M24.1961 27.5309V11.4815H33.006V7.22226H9.05804V11.4815H17.8679V27.5309H24.1961Z" fill="#363636"/>
<path fill-rule="evenodd" clip-rule="evenodd" d="M82.7011 27.1605C77.8619 28.0247 71.7198 28.3334 67.1908 26.605C63.3442 25.2469 61.0487 21.9136 60.5524 18.7037C60.056 14.7531 61.8552 11.2346 65.7018 8.95064C70.1688 6.29632 77.3035 6.41977 82.1428 8.2099V12.6543C78.4823 11.2346 72.8986 10.0618 69.3623 12.284C66.8186 13.8889 66.012 16.4815 66.6945 19.0124C67.1908 21.0494 69.3002 22.8395 71.6578 23.5185C73.3329 23.9506 75.3182 24.0741 77.1795 23.8889V20.6173H74.7598V16.6667H82.7632L82.7011 27.1605Z" fill="#363636"/>
<path fill-rule="evenodd" clip-rule="evenodd" d="M39.6444 23.5803L37.535 27.5926H31.0827L41.4436 7.22226H48.6404L59.2495 27.5926H52.8592L50.6258 23.5803H39.6444ZM45.1661 12.284L41.3816 19.4445H48.7645L45.1661 12.284Z" fill="#363636"/>
</svg>
