<svg width="438" height="437" viewBox="0 0 438 437" fill="none" xmlns="http://www.w3.org/2000/svg">
<path d="M176.297 394.617L181.921 395.713L185.293 378.398L189.386 379.195L186.014 396.51L191.609 397.599L190.898 401.251L175.585 398.269L176.297 394.617Z" fill="white" fill-opacity="0.5"/>
<path d="M160.595 371.329L163.072 372.151L163.558 374.494L168.225 373.672C170.427 374.403 171.643 375.692 171.872 377.539C171.994 378.443 171.982 379.366 171.838 380.309C171.668 381.264 171.423 382.226 171.101 383.194C170.773 384.181 170.524 384.899 170.354 385.348C170.178 385.816 169.951 386.342 169.673 386.924C169.389 387.525 169.111 388.012 168.84 388.386C168.549 388.753 168.199 389.111 167.788 389.459C167.371 389.826 166.929 390.08 166.461 390.219C165.411 390.524 164.203 390.45 162.837 389.996L158.936 388.701L155.159 387.7L160.595 371.329ZM162.576 377.739L160.042 385.37L162.861 386.306C163.905 386.652 164.768 386.496 165.45 385.838C166.113 385.173 166.71 384.043 167.239 382.449C167.762 380.873 167.941 379.7 167.776 378.929C167.591 378.151 166.958 377.582 165.876 377.223L162.576 377.739Z" fill="white" fill-opacity="0.5"/>
<path d="M137.498 379.597L133.881 378.122L141.027 363.283C141.851 361.571 142.967 360.499 144.374 360.066C145.771 359.607 147.416 359.833 149.308 360.744C150.768 361.447 151.908 362.352 152.73 363.458C153.167 364.024 153.419 364.677 153.483 365.419C153.548 366.16 153.389 366.928 153.008 367.72L149.659 366.308C149.902 365.803 149.895 365.356 149.639 364.966C149.383 364.576 148.822 364.173 147.957 363.757C147.074 363.331 146.376 363.261 145.861 363.546C145.328 363.823 144.867 364.366 144.476 365.177L143.222 367.436L147.982 367.232C150.054 368.229 151.112 369.605 151.156 371.357C151.206 372.913 150.797 374.592 149.93 376.394C148.897 378.538 148.006 379.974 147.256 380.7C146.445 381.509 145.62 381.977 144.781 382.106C143.71 382.256 142.517 382.014 141.201 381.381L137.498 379.597ZM141.859 370.543L139.021 376.435L141.697 377.724C142.706 378.21 143.565 378.201 144.273 377.699C144.981 377.196 145.63 376.332 146.221 375.107C146.811 373.882 147.042 372.917 146.916 372.212C146.762 371.517 146.19 370.93 145.199 370.453L141.859 370.543Z" fill="white" fill-opacity="0.5"/>
<path d="M105.919 337.056L109.094 339.759L103.494 346.338L109.456 351.414L115.056 344.835L118.232 347.538L104.386 363.802L101.21 361.099L107.064 354.223L101.102 349.148L95.2482 356.024L92.0729 353.32L105.919 337.056Z" fill="white" fill-opacity="0.5"/>
<path d="M87.5062 328.442L94.2225 335.837C95.3774 334.789 96.0599 333.845 96.2702 333.005C96.4671 332.151 96.068 331.176 95.073 330.08C94.4276 329.37 93.7282 329.046 92.9747 329.109C92.2065 329.185 91.6151 329.411 91.2006 329.788L88.8408 327.189C90.425 325.751 91.9771 325.125 93.4973 325.311C95.004 325.483 96.396 326.272 97.6734 327.678C98.9373 329.07 99.719 330.332 100.018 331.465C100.643 333.789 99.2006 336.544 95.6917 339.731C93.6041 341.627 91.669 342.56 89.8865 342.531C88.0891 342.515 86.35 341.582 84.6693 339.731C81.7515 336.519 82.0767 333.292 85.6448 330.051C86.0298 329.702 86.6502 329.165 87.5062 328.442ZM92.1855 337.566L87.8693 332.813C86.8921 333.701 86.3495 334.531 86.2415 335.305C86.1335 336.078 86.4291 336.85 87.1283 337.62C87.814 338.375 88.5948 338.773 89.4706 338.816C90.3182 338.856 91.2231 338.44 92.1855 337.566Z" fill="white" fill-opacity="0.5"/>
<path d="M81.0526 306.747L82.7174 309.134L81.5592 311.039L86.1261 313.706C86.8928 314.805 87.1602 316.045 86.9286 317.426C86.6691 318.802 85.7602 320.033 84.2019 321.12L74.7781 327.694L72.5468 324.495L81.2817 318.402C82.84 317.315 83.1843 316.148 82.3147 314.901L78.7565 313.104L69.2343 319.746L67.003 316.547L81.0526 306.747Z" fill="white" fill-opacity="0.5"/>
<path d="M63.9442 291.619L68.565 300.476C69.9481 299.754 70.8478 299.014 71.2641 298.256C71.6712 297.479 71.5325 296.435 70.8479 295.123C70.4039 294.272 69.8095 293.781 69.0648 293.651C68.3023 293.53 67.6729 293.599 67.1764 293.858L65.5528 290.746C67.4502 289.756 69.1104 289.544 70.5335 290.11C71.9474 290.658 73.0938 291.774 73.9726 293.459C74.8422 295.126 75.2781 296.545 75.2804 297.717C75.295 300.123 73.201 302.422 68.9985 304.615C66.4983 305.919 64.3898 306.331 62.6729 305.851C60.9383 305.38 59.4928 304.036 58.3365 301.819C56.3291 297.972 57.4621 294.933 61.7355 292.703C62.1965 292.463 62.9328 292.101 63.9442 291.619ZM66.1562 301.631L63.1867 295.939C62.0164 296.55 61.2808 297.215 60.9802 297.936C60.6795 298.657 60.7696 299.479 61.2507 300.401C61.7225 301.305 62.3766 301.889 63.2131 302.151C64.0225 302.406 65.0036 302.232 66.1562 301.631Z" fill="white" fill-opacity="0.5"/>
<path d="M47.5187 275.799L51.4954 275.486C51.4864 275.809 51.5475 276.149 51.6787 276.505C52.0241 277.444 52.8524 278.45 54.1637 279.523L65.538 275.337L66.8849 278.997L50.8089 284.913L49.8039 282.182L50.9008 280.819L47.8662 277.525C47.7784 277.344 47.6757 277.094 47.5583 276.775C47.4409 276.456 47.4277 276.13 47.5187 275.799Z" fill="white" fill-opacity="0.5"/>
<path d="M41.7223 228.995L44.1358 230.269L42.4607 233.836L42.6175 234.213L46.2072 235.494L45.3799 238.166L41.5053 236.43L41.3142 240.698L38.5961 240.327L39.0027 236.732L35.5943 238.266L34.5586 235.653L38.1153 234.406L35.3621 232.11L37.0831 229.955L40.1472 232.974L41.7223 228.995Z" fill="white" fill-opacity="0.5"/>
<path d="M41.3008 182.096L40.3863 187.752L57.8002 190.567L57.1347 194.684L39.7208 191.869L38.8111 197.496L35.1388 196.902L37.6285 181.502L41.3008 182.096Z" fill="white" fill-opacity="0.5"/>
<path d="M64.0744 165.655L63.3318 168.157L61.0059 168.719L61.9764 173.357C61.3163 175.581 60.0672 176.837 58.229 177.126C57.3291 177.276 56.4058 177.294 55.4591 177.18C54.4989 177.041 53.5299 176.827 52.5521 176.537C51.5551 176.241 50.8293 176.015 50.3749 175.859C49.9012 175.698 49.369 175.488 48.7782 175.229C48.1683 174.964 47.6723 174.702 47.2903 174.443C46.914 174.164 46.5452 173.825 46.1839 173.426C45.8034 173.021 45.5359 172.587 45.3812 172.124C45.0429 171.085 45.0786 169.875 45.4884 168.494L46.6578 164.554L47.5374 160.747L64.0744 165.655ZM57.7304 167.841L50.0227 165.553L49.1777 168.4C48.8647 169.455 49.0482 170.312 49.7283 170.973C50.4141 171.615 51.5623 172.175 53.1728 172.653C54.7642 173.125 55.9428 173.266 56.7085 173.076C57.4799 172.867 58.0277 172.216 58.3521 171.123L57.7304 167.841Z" fill="white" fill-opacity="0.5"/>
<path d="M55.0695 142.836L56.4287 139.173L71.4891 145.839C73.2265 146.608 74.3338 147.689 74.811 149.082C75.3147 150.464 75.1414 152.115 74.2914 154.035C73.6357 155.517 72.7682 156.685 71.6892 157.542C71.1375 157.998 70.4922 158.27 69.7531 158.358C69.0141 158.447 68.2422 158.313 67.4375 157.956L68.7423 154.564C69.2544 154.791 69.7011 154.77 70.0825 154.501C70.4638 154.233 70.8488 153.66 71.2374 152.782C71.6341 151.886 71.6818 151.185 71.3805 150.68C71.0873 150.156 70.5292 149.712 69.7063 149.348L67.4078 148.167L67.7651 152.918C66.8341 155.021 65.4935 156.123 63.7432 156.223C62.1898 156.322 60.4987 155.968 58.6699 155.158C56.4936 154.195 55.0303 153.35 54.2799 152.624C53.4461 151.839 52.9515 151.03 52.7959 150.196C52.6115 149.13 52.8149 147.929 53.4058 146.594L55.0695 142.836ZM64.2594 146.904L58.2791 144.257L57.0769 146.973C56.6235 147.997 56.6593 148.855 57.1843 149.546C57.7092 150.238 58.5935 150.859 59.8371 151.41C61.0807 151.96 62.0527 152.161 62.753 152.011C63.4432 151.836 64.0109 151.245 64.4562 150.239L64.2594 146.904Z" fill="white" fill-opacity="0.5"/>
<path d="M96.5769 109.909L93.977 113.17L87.222 107.783L82.34 113.904L89.0951 119.291L86.4951 122.551L69.7952 109.234L72.3951 105.974L79.4551 111.604L84.337 105.482L77.2771 99.8518L79.877 96.5915L96.5769 109.909Z" fill="white" fill-opacity="0.5"/>
<path d="M104.596 91.2298L97.42 98.1797C98.5053 99.3003 99.4708 99.9522 100.316 100.136C101.177 100.305 102.138 99.8748 103.201 98.8452C103.891 98.1773 104.192 97.4679 104.105 96.7169C104.004 95.9515 103.759 95.3676 103.37 94.9654L105.891 92.5235C107.38 94.0608 108.055 95.5921 107.918 97.1174C107.795 98.6288 107.05 100.045 105.686 101.367C104.335 102.675 103.098 103.497 101.976 103.832C99.6732 104.531 96.8732 103.178 93.5756 99.7729C91.6138 97.7471 90.6189 95.843 90.5909 94.0604C90.549 92.2634 91.426 90.4954 93.2218 88.7561C96.3395 85.7369 99.5749 85.9585 102.928 89.4209C103.29 89.7945 103.846 90.3974 104.596 91.2298ZM95.6272 96.1991L100.239 91.7328C99.3207 90.7846 98.4733 90.2689 97.6967 90.1857C96.9201 90.1025 96.1583 90.4227 95.4112 91.1462C94.6785 91.8558 94.3051 92.649 94.291 93.5257C94.2774 94.3741 94.7228 95.2652 95.6272 96.1991Z" fill="white" fill-opacity="0.5"/>
<path d="M126.073 84.0841L123.741 85.8246L121.8 84.728L119.281 89.3781C118.207 90.1795 116.976 90.4866 115.589 90.2994C114.205 90.0841 112.945 89.2151 111.809 87.6924L104.936 78.4842L108.062 76.1516L114.432 84.6866C115.568 86.2093 116.746 86.5161 117.964 85.6069L119.646 81.9929L112.702 72.6885L115.828 70.3559L126.073 84.0841Z" fill="white" fill-opacity="0.5"/>
<path d="M140.645 66.4997L131.941 71.402C132.706 72.7612 133.475 73.6368 134.247 74.0286C135.036 74.4106 136.075 74.2384 137.364 73.5122C138.201 73.0411 138.672 72.4313 138.779 71.6827C138.875 70.9168 138.786 70.2898 138.511 69.8019L141.57 68.0795C142.62 69.9441 142.885 71.5967 142.365 73.0372C141.862 74.468 140.783 75.6495 139.128 76.5819C137.49 77.5044 136.085 77.9856 134.914 78.0255C132.509 78.1172 130.144 76.098 127.818 71.9679C126.434 69.5108 125.955 67.4166 126.38 65.6852C126.795 63.9363 128.092 62.4485 130.27 61.2217C134.052 59.092 137.125 60.1271 139.491 64.3268C139.746 64.7799 140.131 65.5042 140.645 66.4997ZM130.709 69.0314L136.303 65.881C135.655 64.7308 134.966 64.017 134.236 63.7396C133.506 63.4622 132.688 63.5786 131.782 64.089C130.893 64.5895 130.331 65.262 130.095 66.1065C129.866 66.9237 130.071 67.8987 130.709 69.0314Z" fill="white" fill-opacity="0.5"/>
<path d="M155.931 49.5755L156.371 53.5401C156.048 53.5415 155.71 53.6134 155.358 53.756C154.431 54.1313 153.452 54.9914 152.422 56.3365L156.97 67.5707L153.355 69.0343L146.927 53.1562L149.624 52.0641L151.021 53.1168L154.217 49.9781C154.395 49.8846 154.641 49.774 154.957 49.6464C155.272 49.5188 155.597 49.4951 155.931 49.5755Z" fill="white" fill-opacity="0.5"/>
<path d="M202.525 42.282L201.329 44.7351L197.71 43.1751L197.338 43.344L196.173 46.9729L193.476 46.2316L195.087 42.3034L190.815 42.2492L191.098 39.5206L194.705 39.8118L193.062 36.4543L195.64 35.3354L197.001 38.8503L199.208 36.0249L201.417 37.6759L198.497 40.8353L202.525 42.282Z" fill="white" fill-opacity="0.5"/>
<path d="M249.387 40.3575L243.704 39.6248L241.448 57.12L237.312 56.5867L239.568 39.0915L233.915 38.3626L234.39 34.6732L249.862 36.6681L249.387 40.3575Z" fill="white" fill-opacity="0.5"/>
<path d="M266.548 62.5924L264.024 61.9304L263.388 59.6237L258.784 60.7423C256.54 60.1539 255.244 58.9456 254.896 57.1177C254.717 56.223 254.669 55.3008 254.753 54.3509C254.861 53.3868 255.045 52.4114 255.303 51.4248C255.567 50.4188 255.77 49.6862 255.911 49.227C256.057 48.7484 256.25 48.2097 256.49 47.6109C256.734 46.9928 256.98 46.4887 257.227 46.0986C257.494 45.7136 257.821 45.3341 258.208 44.9602C258.601 44.5669 259.026 44.2856 259.484 44.1162C260.512 43.7448 261.722 43.7417 263.115 44.1069L267.091 45.1495L270.924 45.9066L266.548 62.5924ZM264.161 56.3217L266.2 48.5447L263.327 47.7913C262.263 47.5123 261.412 47.7232 260.773 48.4242C260.154 49.1301 259.631 50.2957 259.205 51.9207C258.784 53.5264 258.681 54.7089 258.895 55.4681C259.129 56.2324 259.797 56.7591 260.9 57.0483L264.161 56.3217Z" fill="white" fill-opacity="0.5"/>
<path d="M289.067 52.8608L292.772 54.1019L286.592 69.3682C285.879 71.1294 284.834 72.2707 283.458 72.7924C282.092 73.3401 280.437 73.2199 278.49 72.4318C276.988 71.8239 275.792 70.9944 274.902 69.9433C274.428 69.4065 274.136 68.7702 274.024 68.0344C273.912 67.2986 274.021 66.5228 274.351 65.7071L277.783 66.9025C277.573 67.4216 277.608 67.8674 277.889 68.24C278.17 68.6125 278.755 68.9789 279.645 69.3392C280.553 69.707 281.255 69.7322 281.75 69.4148C282.264 69.105 282.69 68.533 283.028 67.6988L284.135 65.3636L279.398 65.8731C277.266 65.0099 276.122 63.7053 275.966 61.9591C275.816 60.4097 276.117 58.7082 276.867 56.8543C277.76 54.6483 278.558 53.1586 279.259 52.3853C280.017 51.5268 280.81 51.0065 281.639 50.8243C282.698 50.6058 283.904 50.7706 285.258 51.3185L289.067 52.8608ZM285.296 62.1763L287.75 56.1143L284.997 54.9998C283.959 54.5795 283.103 54.6427 282.428 55.1896C281.754 55.7364 281.161 56.6401 280.651 57.9008C280.141 59.1614 279.971 60.1393 280.143 60.8345C280.341 61.5187 280.949 62.0672 281.969 62.48L285.296 62.1763Z" fill="white" fill-opacity="0.5"/>
<path d="M323.308 93.2915L319.966 90.7974L325.133 83.8732L318.858 79.19L313.691 86.1142L310.349 83.6201L323.124 66.5019L326.466 68.996L321.065 76.2328L327.34 80.916L332.741 73.6792L336.083 76.1733L323.308 93.2915Z" fill="white" fill-opacity="0.5"/>
<path d="M342.234 100.708L335.058 93.7582C333.973 94.8789 333.352 95.8647 333.196 96.7159C333.054 97.5809 333.515 98.5283 334.578 99.5579C335.268 100.226 335.987 100.504 336.734 100.393C337.496 100.268 338.072 100.004 338.461 99.6017L340.983 102.044C339.494 103.581 337.985 104.305 336.456 104.216C334.942 104.142 333.502 103.443 332.137 102.122C330.787 100.814 329.926 99.6042 329.554 98.4927C328.782 96.2138 330.045 93.3718 333.342 89.9669C335.304 87.9411 337.176 86.8857 338.956 86.8006C340.751 86.7011 342.546 87.5209 344.342 89.2601C347.46 92.2794 347.342 95.5203 343.989 98.9827C343.627 99.3562 343.042 99.9314 342.234 100.708ZM336.98 91.9028L341.592 96.3691C342.51 95.4209 342.999 94.5574 343.057 93.7785C343.115 92.9997 342.771 92.2485 342.024 91.525C341.291 90.8154 340.486 90.4676 339.609 90.4817C338.761 90.4953 337.885 90.969 336.98 91.9028Z" fill="white" fill-opacity="0.5"/>
<path d="M350.065 121.945L348.251 119.67L349.284 117.694L344.556 115.326C343.72 114.278 343.374 113.058 343.517 111.665C343.688 110.275 344.516 108.988 346.001 107.803L354.984 100.64L357.416 103.689L349.09 110.329C347.604 111.513 347.335 112.7 348.283 113.888L351.949 115.454L361.026 108.215L363.458 111.265L350.065 121.945Z" fill="white" fill-opacity="0.5"/>
<path d="M368.107 135.946L362.929 127.403C361.595 128.212 360.744 129.008 360.377 129.792C360.021 130.593 360.226 131.626 360.993 132.891C361.491 133.712 362.116 134.164 362.867 134.246C363.636 134.318 364.259 134.209 364.738 133.919L366.558 136.92C364.728 138.03 363.085 138.348 361.628 137.874C360.182 137.418 358.967 136.377 357.982 134.752C357.007 133.144 356.481 131.756 356.404 130.587C356.235 128.186 358.177 125.758 362.231 123.301C364.642 121.839 366.72 121.292 368.464 121.662C370.225 122.021 371.754 123.269 373.05 125.407C375.3 129.118 374.364 132.223 370.242 134.722C369.797 134.992 369.086 135.4 368.107 135.946ZM365.258 126.096L368.586 131.586C369.715 130.902 370.407 130.19 370.661 129.452C370.914 128.713 370.772 127.899 370.233 127.01C369.704 126.137 369.014 125.597 368.162 125.388C367.338 125.186 366.37 125.422 365.258 126.096Z" fill="white" fill-opacity="0.5"/>
<path d="M385.513 150.681L381.564 151.248C381.553 150.925 381.47 150.59 381.316 150.243C380.911 149.328 380.02 148.378 378.643 147.391L367.56 152.297L365.981 148.73L381.645 141.797L382.823 144.457L381.816 145.888L385.055 148.981C385.155 149.156 385.273 149.399 385.411 149.71C385.548 150.021 385.582 150.344 385.513 150.681Z" fill="white" fill-opacity="0.5"/>
<path d="M394.296 197.018L391.806 195.901L393.249 192.234L393.068 191.868L389.404 190.819L390.058 188.1L394.036 189.584L393.953 185.312L396.69 185.508L396.514 189.123L399.817 187.373L401.018 189.914L397.549 191.386L400.443 193.502L398.864 195.763L395.613 192.945L394.296 197.018Z" fill="white" fill-opacity="0.5"/>
<path d="M397.721 243.793L398.272 238.09L380.713 236.396L381.113 232.245L398.672 233.939L399.219 228.266L402.922 228.623L401.424 244.151L397.721 243.793Z" fill="white" fill-opacity="0.5"/>
<path d="M376.048 261.659L376.629 259.115L378.914 258.405L377.648 253.839C378.164 251.577 379.33 250.243 381.146 249.837C382.035 249.63 382.955 249.553 383.907 249.606C384.874 249.683 385.855 249.835 386.849 250.062C387.863 250.293 388.602 250.472 389.066 250.598C389.549 250.729 390.093 250.905 390.699 251.125C391.325 251.35 391.837 251.58 392.234 251.814C392.628 252.068 393.018 252.383 393.404 252.758C393.809 253.138 394.104 253.554 394.288 254.006C394.692 255.021 394.734 256.231 394.414 257.635L393.499 261.642L392.865 265.498L376.048 261.659ZM382.239 259.072L390.077 260.861L390.738 257.965C390.983 256.893 390.745 256.049 390.024 255.433C389.298 254.837 388.117 254.351 386.479 253.978C384.86 253.608 383.675 253.543 382.923 253.781C382.167 254.04 381.662 254.724 381.408 255.836L382.239 259.072Z" fill="white" fill-opacity="0.5"/>
<path d="M386.496 283.855L385.375 287.598L369.918 281.909C368.135 281.253 366.961 280.246 366.395 278.887C365.804 277.54 365.871 275.881 366.596 273.91C367.156 272.39 367.947 271.168 368.969 270.244C369.49 269.754 370.117 269.441 370.848 269.305C371.58 269.17 372.359 269.254 373.185 269.558L372.1 273.026C371.575 272.833 371.13 272.883 370.767 273.175C370.403 273.468 370.056 274.064 369.724 274.965C369.386 275.885 369.383 276.587 369.716 277.072C370.042 277.576 370.628 277.983 371.472 278.294L373.842 279.326L373.181 274.607C373.975 272.448 375.243 271.263 376.983 271.051C378.527 270.852 380.237 271.098 382.114 271.789C384.347 272.611 385.862 273.36 386.657 274.036C387.54 274.766 388.085 275.542 388.294 276.364C388.546 277.416 388.42 278.627 387.916 279.997L386.496 283.855ZM377.065 280.384L383.202 282.642L384.228 279.855C384.615 278.804 384.524 277.95 383.956 277.294C383.388 276.637 382.466 276.074 381.189 275.604C379.913 275.134 378.93 274.996 378.241 275.19C377.563 275.41 377.035 276.036 376.655 277.068L377.065 280.384Z" fill="white" fill-opacity="0.5"/>
<path d="M347.184 319.373L349.57 315.953L356.656 320.896L361.135 314.474L354.049 309.531L356.435 306.111L373.954 318.331L371.568 321.751L364.162 316.585L359.682 323.007L367.088 328.173L364.703 331.593L347.184 319.373Z" fill="white" fill-opacity="0.5"/>
<path d="M340.378 338.528L347.094 331.133C345.939 330.084 344.934 329.495 344.078 329.366C343.209 329.252 342.277 329.743 341.282 330.839C340.637 331.549 340.381 332.277 340.516 333.021C340.666 333.778 340.948 334.345 341.363 334.721L339.003 337.32C337.419 335.881 336.646 334.396 336.686 332.865C336.712 331.349 337.364 329.888 338.641 328.481C339.905 327.089 341.087 326.19 342.185 325.783C344.439 324.939 347.319 326.11 350.828 329.296C352.916 331.192 354.031 333.029 354.173 334.806C354.33 336.596 353.568 338.417 351.887 340.268C348.97 343.481 345.727 343.467 342.158 340.226C341.773 339.877 341.18 339.31 340.378 338.528ZM349.01 332.994L344.694 337.747C345.671 338.634 346.55 339.095 347.33 339.128C348.11 339.161 348.85 338.793 349.549 338.023C350.235 337.268 350.557 336.452 350.515 335.577C350.474 334.729 349.972 333.868 349.01 332.994Z" fill="white" fill-opacity="0.5"/>
<path d="M319.403 347.035L321.619 345.149L323.626 346.119L325.842 341.317C326.862 340.448 328.071 340.063 329.468 340.161C330.862 340.287 332.175 341.073 333.407 342.52L340.855 351.269L337.885 353.797L330.982 345.688C329.75 344.241 328.555 344.01 327.398 344.996L325.951 348.71L333.476 357.55L330.507 360.079L319.403 347.035Z" fill="white" fill-opacity="0.5"/>
<path d="M305.987 365.517L314.36 360.067C313.509 358.76 312.686 357.935 311.891 357.594C311.079 357.263 310.053 357.501 308.812 358.309C308.008 358.832 307.576 359.471 307.518 360.225C307.471 360.995 307.6 361.615 307.905 362.085L304.964 364C303.796 362.206 303.426 360.574 303.852 359.103C304.262 357.643 305.263 356.395 306.856 355.358C308.431 354.333 309.802 353.762 310.969 353.648C313.362 353.402 315.852 355.266 318.438 359.238C319.976 361.601 320.589 363.661 320.275 365.416C319.973 367.188 318.774 368.755 316.679 370.119C313.042 372.487 309.908 371.651 307.279 367.611C306.995 367.176 306.565 366.477 305.987 365.517ZM315.741 362.354L310.36 365.856C311.08 366.962 311.814 367.631 312.56 367.861C313.306 368.091 314.115 367.922 314.987 367.355C315.842 366.798 316.36 366.091 316.541 365.233C316.717 364.403 316.45 363.443 315.741 362.354Z" fill="white" fill-opacity="0.5"/>
<path d="M291.817 383.386L291.124 379.457C291.446 379.435 291.779 379.342 292.121 379.177C293.022 378.743 293.944 377.822 294.886 376.414L289.627 365.494L293.141 363.802L300.574 379.235L297.952 380.498L296.49 379.537L293.502 382.874C293.33 382.979 293.092 383.105 292.785 383.252C292.479 383.4 292.156 383.444 291.817 383.386Z" fill="white" fill-opacity="0.5"/>
<path d="M245.786 393.649L246.823 391.125L250.534 392.45L250.894 392.257L251.825 388.561L254.564 389.128L253.208 393.152L257.475 392.932L257.367 395.673L253.748 395.614L255.603 398.859L253.102 400.141L251.519 396.72L249.498 399.681L247.187 398.175L249.899 394.835L245.786 393.649Z" fill="white" fill-opacity="0.5"/>
</svg>
