<svg width="344" height="275" viewBox="0 0 344 275" fill="none" xmlns="http://www.w3.org/2000/svg">
<path fill-rule="evenodd" clip-rule="evenodd" d="M50.9033 177.199V20.8271H0V0.685547H126.465V20.8271H75.4395V177.199H50.9033ZM98.5723 274.199L164.368 97.6855H185.975L201.376 138.926C200.281 133.247 199.734 127.163 199.734 120.674V65.2539C199.734 55.8952 200.792 47.3096 202.908 39.4971C205.105 31.6032 208.89 24.7673 214.261 18.9893C219.632 13.2113 227.078 8.73535 236.6 5.56152C246.202 2.3877 258.41 0.800781 273.221 0.800781C287.462 0.800781 299.018 2.14355 307.889 4.8291C316.84 7.43327 323.717 11.1361 328.519 15.9375C333.32 20.6576 336.616 26.2321 338.406 32.6611C340.197 39.0088 341.092 45.9261 341.092 53.4131V56.0986L318.631 57.9297V55.2441C318.631 46.1296 317.369 39.0902 314.847 34.126C312.405 29.0804 307.889 25.5811 301.297 23.6279C294.786 21.5934 285.428 20.5762 273.221 20.5762C262.885 20.5762 254.056 21.7562 246.731 24.1162C239.489 26.3949 233.955 30.4639 230.13 36.3232C226.305 42.1012 224.393 50.2393 224.393 60.7373V124.458C224.393 134.875 226.264 142.85 230.008 148.384C233.833 153.918 239.367 157.743 246.609 159.858C253.934 161.893 262.804 162.91 273.221 162.91C283.719 162.91 292.304 161.893 298.978 159.858C305.651 157.743 310.534 153.918 313.626 148.384C316.8 142.85 318.387 134.875 318.387 124.458V108.223H276.517V90.2783H343.045V180H329.617L326.565 149.971C325.101 159.574 320.218 167.427 311.917 173.53C303.616 179.634 290.717 182.686 273.221 182.686C258.491 182.686 246.325 181.18 236.722 178.169C227.2 175.158 219.754 170.926 214.383 165.474C212.159 163.182 210.207 160.717 208.527 158.077L251.893 274.199H226.868L215.027 239.775H136.048L124.085 274.199H98.5723ZM142.396 221.709H208.802L175.843 125.884L142.396 221.709Z" fill="white"/>
</svg>
